<svg width="25" height="26" viewBox="0 0 25 26" fill="none" xmlns="http://www.w3.org/2000/svg">
<path d="M16.6665 4.33332H18.7498C19.3024 4.33332 19.8323 4.5616 20.223 4.96793C20.6137 5.37425 20.8332 5.92535 20.8332 6.49999V21.6667C20.8332 22.2413 20.6137 22.7924 20.223 23.1987C19.8323 23.6051 19.3024 23.8333 18.7498 23.8333H6.24984C5.6973 23.8333 5.1674 23.6051 4.7767 23.1987C4.386 22.7924 4.1665 22.2413 4.1665 21.6667V6.49999C4.1665 5.92535 4.386 5.37425 4.7767 4.96793C5.1674 4.5616 5.6973 4.33332 6.24984 4.33332H8.33317" fill="#5A5A5A"/>
<path d="M15.6248 2.16666H9.37484C8.79954 2.16666 8.33317 2.65168 8.33317 3.24999V5.41666C8.33317 6.01497 8.79954 6.49999 9.37484 6.49999H15.6248C16.2001 6.49999 16.6665 6.01497 16.6665 5.41666V3.24999C16.6665 2.65168 16.2001 2.16666 15.6248 2.16666Z" fill="#5A5A5A"/>
<rect x="10" y="4" width="5" height="2" fill="white"/>
</svg>
