<svg width="25" height="26" viewBox="0 0 25 26" fill="none" xmlns="http://www.w3.org/2000/svg">
<path d="M16.667 4.33332H18.7503C19.3029 4.33332 19.8328 4.5616 20.2235 4.96793C20.6142 5.37425 20.8337 5.92535 20.8337 6.49999V21.6667C20.8337 22.2413 20.6142 22.7924 20.2235 23.1987C19.8328 23.6051 19.3029 23.8333 18.7503 23.8333H6.25033C5.69779 23.8333 5.16789 23.6051 4.77719 23.1987C4.38649 22.7924 4.16699 22.2413 4.16699 21.6667V6.49999C4.16699 5.92535 4.38649 5.37425 4.77719 4.96793C5.16789 4.5616 5.69779 4.33332 6.25033 4.33332H8.33366" fill="white"/>
<path d="M15.6253 2.16666H9.37533C8.80003 2.16666 8.33366 2.65168 8.33366 3.24999V5.41666C8.33366 6.01497 8.80003 6.49999 9.37533 6.49999H15.6253C16.2006 6.49999 16.667 6.01497 16.667 5.41666V3.24999C16.667 2.65168 16.2006 2.16666 15.6253 2.16666Z" fill="white"/>
<rect x="10" y="4" width="5" height="2" fill="#1F5FFF"/>
</svg>
