<svg width="28" height="21" viewBox="0 0 28 21" fill="none" xmlns="http://www.w3.org/2000/svg">
<g clip-path="url(#clip0_160_7465)">
<path d="M6.61523 9.65999L13.8602 4.75999L21.1052 9.65999V17.36C21.1052 17.7313 20.9356 18.0874 20.6337 18.3499C20.3317 18.6125 19.9222 18.76 19.4952 18.76H8.22523C7.79824 18.76 7.38873 18.6125 7.08679 18.3499C6.78486 18.0874 6.61523 17.7313 6.61523 17.36V9.65999Z" fill="#5A5A5A"/>
<path d="M11.4452 18.76V11.76H16.2752V18.76" fill="#5A5A5A"/>
<path d="M11.4452 18.76V11.76H16.2752V18.76M6.61523 9.65999L13.8602 4.75999L21.1052 9.65999V17.36C21.1052 17.7313 20.9356 18.0874 20.6337 18.3499C20.3317 18.6125 19.9222 18.76 19.4952 18.76H8.22523C7.79824 18.76 7.38873 18.6125 7.08679 18.3499C6.78486 18.0874 6.61523 17.7313 6.61523 17.36V9.65999Z" stroke="#5A5A5A" stroke-width="2.5" stroke-linecap="round" stroke-linejoin="round"/>
</g>
<rect x="11.7598" y="14.28" width="4.2" height="6.72" fill="white"/>
<path d="M13.1942 0.594047C13.5736 0.255588 14.1464 0.255588 14.5258 0.594047L23.9061 8.96385C24.5915 9.57542 24.1589 10.71 23.2404 10.71H4.47964C3.56105 10.71 3.12846 9.57542 3.81387 8.96384L13.1942 0.594047Z" fill="#5A5A5A"/>
<defs>
<clipPath id="clip0_160_7465">
<rect width="19.32" height="16.8" fill="white" transform="translate(4.2002 3.36)"/>
</clipPath>
</defs>
</svg>
