<svg width="28" height="21" viewBox="0 0 28 21" fill="none" xmlns="http://www.w3.org/2000/svg">
<g clip-path="url(#clip0_73_5172)">
<path d="M6.61499 9.65998L13.86 4.75998L21.105 9.65998V17.36C21.105 17.7313 20.9354 18.0874 20.6334 18.3499C20.3315 18.6125 19.922 18.76 19.495 18.76H8.22499C7.79799 18.76 7.38848 18.6125 7.08655 18.3499C6.78461 18.0874 6.61499 17.7313 6.61499 17.36V9.65998Z" fill="white"/>
<path d="M11.445 18.76V11.76H16.275V18.76" fill="white"/>
<path d="M11.445 18.76V11.76H16.275V18.76M6.61499 9.65998L13.86 4.75998L21.105 9.65998V17.36C21.105 17.7313 20.9354 18.0874 20.6334 18.3499C20.3315 18.6125 19.922 18.76 19.495 18.76H8.22499C7.79799 18.76 7.38848 18.6125 7.08655 18.3499C6.78461 18.0874 6.61499 17.7313 6.61499 17.36V9.65998Z" stroke="white" stroke-width="2.5" stroke-linecap="round" stroke-linejoin="round"/>
</g>
<rect x="11.76" y="14.28" width="4.2" height="6.72" fill="#1F5FFF"/>
<path d="M13.1942 0.594047C13.5736 0.255588 14.1464 0.255588 14.5258 0.594047L23.9061 8.96385C24.5915 9.57542 24.1589 10.71 23.2404 10.71H4.47964C3.56105 10.71 3.12846 9.57542 3.81387 8.96384L13.1942 0.594047Z" fill="white"/>
<defs>
<clipPath id="clip0_73_5172">
<rect width="19.32" height="16.8" fill="white" transform="translate(4.20001 3.35999)"/>
</clipPath>
</defs>
</svg>
