<svg width="21" height="17" viewBox="0 0 21 17" fill="none" xmlns="http://www.w3.org/2000/svg">
<rect width="21" height="16.1538" rx="3" fill="white"/>
<path d="M12.9229 3.23071H18.5767M12.9229 7.26917H18.5767" stroke="#5A5A5A" stroke-width="1.5" stroke-linecap="round"/>
<path d="M12.1152 13.5288V12.3173C12.1152 11.6747 11.8599 11.0583 11.4055 10.6039C10.951 10.1495 10.3347 9.89423 9.69208 9.89423H4.84593C4.20329 9.89423 3.58697 10.1495 3.13255 10.6039C2.67814 11.0583 2.42285 11.6747 2.42285 12.3173V13.5288" fill="#5A5A5A"/>
<path d="M7.26901 7.47115C8.60723 7.47115 9.69208 6.38631 9.69208 5.04808C9.69208 3.70985 8.60723 2.625 7.26901 2.625C5.93078 2.625 4.84593 3.70985 4.84593 5.04808C4.84593 6.38631 5.93078 7.47115 7.26901 7.47115Z" fill="#5A5A5A"/>
</svg>
