<svg width="21" height="17" viewBox="0 0 21 17" fill="none" xmlns="http://www.w3.org/2000/svg">
<rect width="21" height="16.1538" rx="3" fill="#5A5A5A"/>
<path d="M12.9231 3.23077H18.5769M12.9231 7.26924H18.5769" stroke="white" stroke-width="1.5" stroke-linecap="round"/>
<path d="M12.1154 13.5288V12.3173C12.1154 11.6747 11.8601 11.0583 11.4057 10.6039C10.9513 10.1495 10.335 9.89423 9.69233 9.89423H4.84617C4.20353 9.89423 3.58721 10.1495 3.1328 10.6039C2.67838 11.0583 2.4231 11.6747 2.4231 12.3173V13.5288" fill="white"/>
<path d="M7.26925 7.47115C8.60748 7.47115 9.69233 6.38631 9.69233 5.04808C9.69233 3.70985 8.60748 2.625 7.26925 2.625C5.93102 2.625 4.84617 3.70985 4.84617 5.04808C4.84617 6.38631 5.93102 7.47115 7.26925 7.47115Z" fill="white"/>
</svg>
